<?xml version="1.0" encoding="utf-8"?>
<!-- Generator: Adobe Illustrator 26.0.1, SVG Export Plug-In . SVG Version: 6.00 Build 0)  -->
<svg version="1.1" id="Layer_1" xmlns="http://www.w3.org/2000/svg" xmlns:xlink="http://www.w3.org/1999/xlink" x="0px" y="0px"
	 viewBox="0 0 283.5 283.5" style="enable-background:new 0 0 283.5 283.5;" xml:space="preserve">
<style type="text/css">
	.st0{fill:#2E2C2C;}
</style>
<path class="st0" d="M262.6,201.4c0,0-25-185.4-25.5-185.3L81.4,25.8c-0.9,0.1,18,166.4,18,166.4c-11.7-6.1-28.3-6.3-43.9,0.8
	c-23.5,10.7-36,33.8-27.9,51.6s33.7,23.6,57.2,12.9c19.9-9.1,32-27,30.2-43.1l0,0L97.6,61.3l131.2-8.2l18,126.3
	c-11.7-6.1-28.3-6.3-43.9,0.8c-23.5,10.7-36,33.8-27.9,51.6c8.1,17.8,33.7,23.6,57.2,12.9C252.3,235.5,264.3,217.5,262.6,201.4
	L262.6,201.4z"/>
</svg>
