<?xml version="1.0" encoding="utf-8"?>
<!-- Generator: Adobe Illustrator 26.0.1, SVG Export Plug-In . SVG Version: 6.00 Build 0)  -->
<svg version="1.1" id="Layer_1" xmlns="http://www.w3.org/2000/svg" xmlns:xlink="http://www.w3.org/1999/xlink" x="0px" y="0px"
	 viewBox="0 0 283.5 283.5" style="enable-background:new 0 0 283.5 283.5;" xml:space="preserve">
<style type="text/css">
	.st0{fill:#2E2C2C;}
</style>
<g>
	<path class="st0" d="M274.9,21.3c-1.5-1.4-3.8-1.9-5.7-1.1L10.3,119.4c-1.9,0.7-3.2,2.4-3.5,4.4c-0.3,2,0.5,4,2.1,5.2l80.2,61.5
		c0,0.1-0.3,0.1-0.3,0.2v44.1c0,2,1.4,3.9,3.2,4.9c0.8,0.4,1.9,0.7,2.7,0.7c1.1,0,2.2-0.3,3.1-0.9l29.6-19.7l68.7,52.5
		c1,0.7,2.2,1.1,3.4,1.1c0.6,0,1.2-0.1,1.7-0.3c1.7-0.6,3.1-1.9,3.6-3.7l71.6-242.4C277.1,24.9,276.5,22.7,274.9,21.3z M96.7,181.1
		c-0.2,0.2-0.4,0.4-0.5,0.6l-72.7-55.6l224-85.8L96.7,181.1z M99.9,224.4v-25.5l17.8,13.6L99.9,224.4z M196.6,258.5l-64.1-49
		c-0.7-0.9-1.6-1.6-2.6-2l-24.9-19.1L260,43.7L196.6,258.5z"/>
</g>
</svg>
