<?xml version="1.0" encoding="utf-8"?>
<!-- Generator: Adobe Illustrator 26.0.1, SVG Export Plug-In . SVG Version: 6.00 Build 0)  -->
<svg version="1.1" id="Layer_1" xmlns="http://www.w3.org/2000/svg" xmlns:xlink="http://www.w3.org/1999/xlink" x="0px" y="0px"
	 viewBox="0 0 566.9 566.9" style="enable-background:new 0 0 566.9 566.9;" xml:space="preserve">
<style type="text/css">
	.st0{fill:#2E2C2C;}
</style>
<path class="st0" d="M393.6,539c-0.1-0.9,0.5-1,1.2-1c1.6,0,3.2,0,4.8,0c0,0.3,0,0.7,0,1C397.6,539,395.6,539,393.6,539z"/>
<path class="st0" d="M132.6,539c1-1.4,2-1.4,3,0C134.6,539,133.6,539,132.6,539z"/>
<ellipse class="st0" cx="401.1" cy="538.5" rx="2.1" ry="0.7"/>
<path class="st0" d="M485.2,444.3c0-0.3,0-0.7,0-1c-0.1-0.5,0.1-0.8,0.6-0.9C486.4,443.3,486.6,444.1,485.2,444.3z"/>
<path class="st0" d="M382.7,445.6c-3.2,4.1-6.9,7.1-13.6,5c-1.7-0.8-3.9-2.7-5.3-6.3c-0.6-4.4-0.5-9.5,4.9-11.9
	c4.9-2.2,8.7-1.7,13.8,4.2C383.5,441.4,383.5,441.4,382.7,445.6z"/>
<g>
	<g>
		<path class="st0" d="M427.2,514.5H269.8l17.1-39.1c2.5-5.6,3.7-11.6,3.7-17.8c0-24.5-20-44.5-44.5-44.5c-24.6,0-44.5,20-44.5,44.5
			c0,6.2,1.2,12.2,3.7,17.8l17.1,39H64.9V152.3h143.9c0.3-0.4,0.4-0.9,0.4-1.2c0-0.1,0-0.1,0-0.2c-1.4-1.2-2.4-2.1-3.9-3.5
			c-10.5-10.8-16.2-24.9-16.2-39.7c0-31.3,25.5-56.8,56.8-56.8s56.8,25.5,56.8,56.8c0,14.8-5.7,28.9-16.1,39.5l-3.6,3.2
			c-0.1,0.3-0.2,0.5-0.2,0.6c0,0.4,0.2,0.8,0.4,1.2h143.7v143.8c0.4,0.2,0.9,0.4,1.4,0.4c0.9-0.9,1.9-2.2,3.5-3.7
			c10.8-10.5,24.9-16.2,39.7-16.2c31.3,0,56.8,25.5,56.8,56.8c0,31.3-25.5,56.8-56.8,56.8c-14.8,0-28.9-5.7-39.5-16.1l-3.1-3.4
			c-0.6-0.1-1.3,0.1-1.9,0.3L427.2,514.5L427.2,514.5z M298.2,496h110.4V368.7c0-2.2,0.6-4.4,1.7-6.3c5.6-9.7,19.9-13.3,29.6-7
			l1.8,1.6l3.4,3.8c7.2,7,16.6,10.8,26.6,10.8c21.1,0,38.2-17.2,38.2-38.2c0-21.1-17.2-38.3-38.2-38.3c-9.9,0-19.4,3.8-26.6,10.8
			c-0.8,0.8-1.5,1.6-2.1,2.4c-1.2,1.5-2.8,3-4.1,3.9c-11.5,6.4-23.2,1.7-28.7-7.6c-1.1-1.9-1.7-4.1-1.7-6.2V170.9H281.4
			c-2.2,0-4.3-0.6-6.2-1.7c-6.6-3.8-10.6-10.7-10.6-18.1c0-4,1.2-7.9,3.6-11.5l2.6-2.8l2.5-2.1c7.4-7.7,11.1-17,11.1-26.9
			c0-21.1-17.2-38.2-38.2-38.2c-21.1,0-38.3,17.2-38.3,38.2c0,10,3.8,19.4,10.8,26.6c0.8,0.8,1.6,1.4,2.3,2c1.6,1.3,3.1,2.9,4,4.2
			c2.1,3.8,3,7.2,3,10.6c0,7.4-4,14.3-10.6,18.1c-1.9,1.1-4.1,1.7-6.3,1.7H83.5v325.1h110.4l-5.7-13c-3.5-8-5.3-16.5-5.3-25.2
			c0-34.8,28.3-63.1,63.1-63.1c34.8,0,63.1,28.3,63.1,63.1c0,8.8-1.8,17.3-5.3,25.2L298.2,496z"/>
	</g>
</g>
</svg>
