<?xml version="1.0" encoding="utf-8"?>
<!-- Generator: Adobe Illustrator 26.0.1, SVG Export Plug-In . SVG Version: 6.00 Build 0)  -->
<svg version="1.1" id="Layer_1" xmlns="http://www.w3.org/2000/svg" xmlns:xlink="http://www.w3.org/1999/xlink" x="0px" y="0px"
	 viewBox="0 0 283.5 283.5" style="enable-background:new 0 0 283.5 283.5;" xml:space="preserve">
<style type="text/css">
	.st0{fill:#2E2C2C;}
</style>
<g>
	<path class="st0" d="M34.5,201l0.7-120.6H21.6v153.5c18.7-4.8,37.5-7.9,56.4-8c17.5-0.1,34.9,2.3,52.4,8.3
		c-10.9-8.8-23-15.3-35.9-19.5c-16.3-5.3-33.9-7.1-52-5.5c-4.1,0.3-7.6-2.7-8-6.8C34.5,201.9,34.5,201.5,34.5,201L34.5,201z
		 M234.4,74.1c0-0.4-0.1-0.7-0.1-1.1c0-0.4,0-0.7,0.1-1.1V47.4c-17.1-1.6-34.8,0.3-50.2,6.1C169.8,59,157.3,68,149.2,80.9V220
		c12.6-8.4,25.4-15.3,38.6-20c15-5.4,30.5-7.9,46.5-6.6V74.1L234.4,74.1z M249.2,65.6h20.1c4.1,0,7.4,3.3,7.4,7.4v170.6
		c0,4.1-3.3,7.4-7.4,7.4c-0.8,0-1.6-0.1-2.4-0.4c-20.6-5.9-41.2-9.8-61.5-10c-19.8-0.1-39.6,3.4-59.5,12.1c-1.2,0.8-2.7,1.3-4.2,1.2
		c-1.5,0-3-0.4-4.2-1.2c-19.9-8.8-39.7-12.3-59.5-12.1c-20.3,0.1-40.8,4.1-61.5,10c-0.7,0.3-1.6,0.4-2.4,0.4c-4,0-7.4-3.3-7.4-7.4
		V73c0-4.1,3.3-7.4,7.4-7.4h21.1l0.1-24.7c0-3.6,2.5-6.5,5.9-7.2l0,0c19.5-4.1,43.2-3.1,63.9,4.9c14.3,5.5,27.4,14.3,36.9,26.9
		c9.6-11.8,22.4-20.3,36.9-25.7c19.7-7.5,42.5-9.3,63.9-6.2c3.7,0.5,6.3,3.7,6.3,7.3l0,0L249.2,65.6L249.2,65.6z M156.4,233
		c16.4-5.1,32.7-7.2,49-7.2c18.9,0.1,37.7,3.2,56.4,8V80.4h-12.7v121.3c0,4.1-3.3,7.4-7.4,7.4c-0.6,0-1.2-0.1-1.7-0.2
		c-16.2-2.5-31.9-0.4-47.2,5C180.5,218.4,168.4,224.9,156.4,233L156.4,233z M134.4,218.6V80.7C126.7,67,114.1,57.8,100,52.4
		c-16.1-6.2-34.1-7.5-49.8-5.3l-0.8,146.7c17.2-0.6,33.9,1.6,49.7,6.7C111.6,204.6,123.5,210.6,134.4,218.6L134.4,218.6z"/>
</g>
</svg>
