<?xml version="1.0" encoding="utf-8"?>
<!-- Generator: Adobe Illustrator 26.0.1, SVG Export Plug-In . SVG Version: 6.00 Build 0)  -->
<svg version="1.1" id="Layer_1" xmlns="http://www.w3.org/2000/svg" xmlns:xlink="http://www.w3.org/1999/xlink" x="0px" y="0px"
	 viewBox="0 0 283.5 283.5" style="enable-background:new 0 0 283.5 283.5;" xml:space="preserve">
<style type="text/css">
	.st0{fill:#2E2C2C;}
</style>
<path class="st0" d="M142.8,31.4c-24.6,0.8-48.1,10.2-66.6,26.4h32.7l33.9-17.4C142.8,40.3,142.8,31.4,142.8,31.4z M150,31.4v9
	l33.9,17.4h32.7C198.1,41.5,174.6,32.2,150,31.4z M68.7,65c-11.1,11.8-19.4,25.9-24.2,41.4l19.4,33.4l27.8-4.4l25.4-43.8L106.9,65
	C106.9,65,68.7,65,68.7,65z M185.8,65l-10.2,26.6l25.4,43.8l27.8,4.4l19.1-33.2c-4.7-15.5-12.9-29.8-24-41.6
	C224.1,65,185.8,65,185.8,65z M125.3,96.5l-24.4,42.6l21.5,37.3h47.9l21.5-37.3l-24.4-42.6C167.4,96.5,125.3,96.5,125.3,96.5z
	 M42.1,116.6c-1.4,6.9-2.2,14-2.2,21.1c0,17.5,4.3,34.7,12.6,50.1l9-5.3l-1.7-35.1C59.7,147.3,42.1,116.6,42.1,116.6z M250.7,116.8
	L233,147.3l-1.7,35.1l9,5.3c8.2-15.4,12.6-32.6,12.6-50.1C252.8,130.6,252.1,123.7,250.7,116.8L250.7,116.8z M122.4,186l-18.6,23
	l18.6,32.2c7.9,1.9,15.9,2.8,24,2.9c8.1-0.1,16.1-1,24-2.9L189,209l-18.6-23H122.4z M64.6,189.2l-8.5,4.8
	c13,20.9,32.9,36.6,56.2,44.5l-16.9-29.8L64.6,189.2L64.6,189.2z M228.2,189.2l-30.7,19.6l-16.9,29.5c23.3-7.9,43.1-23.5,56.2-44.3
	L228.2,189.2L228.2,189.2z"/>
</svg>
